<svg width="442" height="948" viewBox="0 0 442 948" fill="none" xmlns="http://www.w3.org/2000/svg">
<g opacity="0.08" clip-path="url(#clip0_112_5)">
<path d="M103.886 363.004L176.17 255.569H31.603L103.886 363.004Z" fill="#244B95"/>
<path d="M22.2598 232.9L94.5431 125.465H-50.0234L22.2598 232.9Z" fill="#066AA8"/>
<path d="M23.2363 491.748L95.5196 384.303H-49.0359L23.2363 491.748Z" fill="#066AA8"/>
<path d="M23.2363 260.551L-49.0359 367.986H95.5196L23.2363 260.551Z" fill="#7AB94D"/>
<path d="M33.1123 734.565L-39.1599 842H105.396L33.1123 734.565Z" fill="#288D5F"/>
<path d="M20.784 521.21L-51.4993 628.645H93.0673L20.784 521.21Z" fill="#066AA8"/>
<path d="M62.0855 686.219L93.0672 640.88H32.0913L62.0855 686.219Z" fill="#7AB94D"/>
<path d="M223.375 168.072L253.857 122.744H192.393L223.375 168.072Z" fill="#288D5F"/>
<path d="M142.725 168.072L173.218 122.744H112.242L142.725 168.072Z" fill="#288D5F"/>
<path d="M181.086 233.81L211.568 188.471H150.592L181.086 233.81Z" fill="#244B95"/>
<path d="M-15.1135 296.816L15.3689 251.487H-46.0952L-15.1135 296.816Z" fill="#288D5F"/>
<path d="M-18.0652 555.664L12.4283 510.325H-48.5476L-18.0652 555.664Z" fill="#288D5F"/>
<path d="M103.886 100.985L134.369 55.6558H72.9048L103.886 100.985Z" fill="#244B95"/>
<path d="M62.0854 39.3389L93.0671 -6.00013H31.603L62.0854 39.3389Z" fill="#7AB94D"/>
<path d="M-15.7128 765.593L14.7695 720.264H-46.2063L-15.7128 765.593Z" fill="#244B95"/>
<path d="M183.05 130.907L152.567 176.236H213.532L183.05 130.907Z" fill="#288D5F"/>
<path d="M102.41 -2.82869L71.4287 42.5104H132.893L102.41 -2.82869Z" fill="#288D5F"/>
<path d="M145.982 797L115 842.339H176.464L145.982 797Z" fill="#288D5F"/>
<rect x="178" y="510" width="36" height="36" fill="#D9D9D9"/>
</g>
<path d="M108.283 965.435L180.567 858H36L108.283 965.435Z" fill="#EDF1F7"/>
<defs>
<clipPath id="clip0_112_5">
<rect width="731" height="848" fill="white" transform="matrix(1 0 0 -1 -289 842)"/>
</clipPath>
</defs>
</svg>
