<svg width="491" height="943" viewBox="0 0 491 943" fill="none" xmlns="http://www.w3.org/2000/svg">
<g opacity="0.11">
<path d="M389.004 410.343L315.633 290.872H462.375L389.004 410.343Z" fill="#3679C0"/>
<path d="M471.859 265.663L398.488 146.193H545.23L471.859 265.663Z" fill="#3679C0"/>
<path d="M470.868 553.51L397.497 434.028H544.228L470.868 553.51Z" fill="#3679C0"/>
<path d="M470.868 296.413L544.228 415.883H397.497L470.868 296.413Z" fill="#86D5D0"/>
<path d="M460.843 823.53L534.203 943H387.472L460.843 823.53Z" fill="#3679C0"/>
<path d="M473.357 586.272L546.728 705.743H399.986L473.357 586.272Z" fill="#165B98"/>
<path d="M431.434 769.767L399.986 719.348H461.879L431.434 769.767Z" fill="#3679C0"/>
<path d="M267.718 193.574L236.777 143.167H299.166L267.718 193.574Z" fill="#3679C0"/>
<path d="M349.581 193.574L318.629 143.167H380.523L349.581 193.574Z" fill="#3679C0"/>
<path d="M310.643 266.676L279.702 216.257H341.595L310.643 266.676Z" fill="#3679C0"/>
<path d="M509.795 336.74L478.854 286.333H541.243L509.795 336.74Z" fill="#3679C0"/>
<path d="M512.791 624.587L481.839 574.168H543.732L512.791 624.587Z" fill="#3679C0"/>
<path d="M389.004 118.97L358.063 68.563H420.452L389.004 118.97Z" fill="#3679C0"/>
<path d="M431.434 50.4183L399.986 -3.8147e-06L462.375 -3.8147e-06L431.434 50.4183Z" fill="#117A76"/>
<path d="M510.403 858.033L479.462 807.626H541.355L510.403 858.033Z" fill="#3679C0"/>
<path d="M308.65 152.245L339.591 202.652H277.708L308.65 152.245Z" fill="#3679C0"/>
<path d="M390.502 3.52655L421.95 53.9449L359.561 53.9449L390.502 3.52655Z" fill="#117A76"/>
</g>
</svg>
