<svg width="330" height="76" viewBox="0 0 330 76" fill="none" xmlns="http://www.w3.org/2000/svg">
<path d="M250.005 29.5741C251.574 29.044 252.931 28.0686 254.606 27.7506C258.656 26.9873 262.313 27.793 265.578 30.242C267.911 31.9913 267.847 32.0125 270.211 30.3374C274.834 27.0615 279.795 26.3936 284.863 29.0334C289.019 31.2067 291.372 34.7795 291.436 39.5715C291.5 44.3422 291.478 49.1236 291.436 53.8943C291.425 55.474 291.489 56.9582 291.425 58.6651C291.394 59.6193 291.733 60.6052 290.938 60.7854C289.74 61.0717 288.383 61.2307 287.164 60.6476C286.729 60.4356 286.676 59.9797 286.644 59.492C286.474 56.2267 286.294 52.972 286.347 49.7067C286.4 46.5792 286.347 43.4411 286.358 40.303C286.379 36.7514 282.933 32.5956 278.396 32.7864C274.335 32.956 270.922 36.656 271.06 40.2606C271.166 43.176 271.049 46.0915 270.837 49.007C270.604 52.2087 271.24 55.421 271.113 58.6439C271.038 60.531 270.688 61.0187 268.791 60.9551C265.663 60.8491 265.356 60.6688 265.419 57.4565C265.472 54.8909 265.578 52.3041 265.589 49.7597C265.589 45.9007 265.642 41.9674 264.741 38.172C264.052 35.2778 261.052 33.0832 258.444 32.8076C253.779 32.3093 250.842 35.405 250.1 39.4336C249.75 41.3207 249.877 43.176 249.856 45.0419C249.814 49.7173 249.814 54.3926 249.856 59.068C249.867 60.4144 249.517 60.9975 248.011 60.9657C244.184 60.8703 244.142 60.9021 244.142 57.043C244.142 47.7878 244.142 38.5431 244.142 29.2878C244.142 27.8884 244.82 27.1887 246.177 27.1887C246.474 27.1887 246.771 27.1887 247.079 27.1887C248.747 27.1887 249.725 27.9803 250.015 29.5635L250.005 29.5741Z" fill="#7AB94D"/>
<path d="M184.592 31.0053C186.299 30.083 187.624 28.7578 189.405 28.1323C196.021 25.7787 202.074 26.5526 207.619 31.0053C214.595 36.603 215.517 48.0104 209.877 54.8803C206.728 58.7181 202.742 60.7855 197.791 61.2626C193.052 61.7184 188.949 60.3614 185.292 57.4353C185.069 57.2551 184.91 56.9477 184.539 57.1703C184.178 57.3823 184.433 57.658 184.433 57.9336C184.454 63.1497 184.465 68.3763 184.465 73.5923C184.465 74.4087 184.189 74.8433 183.235 75.0554C182.069 75.3204 181.03 74.8115 179.917 74.8857C179.418 74.9175 179.206 74.2284 179.005 73.6877C178.772 73.094 178.793 72.5322 178.793 71.9491C178.793 57.7852 178.793 43.6107 178.782 29.4469C178.782 26.8707 179.365 26.7647 181.284 26.9131C181.581 26.9343 181.889 26.9449 182.185 26.9131C183.415 26.7859 184.062 27.1887 184.295 28.5457C184.433 29.3303 184.295 30.1254 184.592 31.0265V31.0053ZM196.328 32.2775C189.84 32.0443 184.804 37.6632 184.454 43.1125C183.935 51.2546 190.391 56.1843 196.36 56.0359C202.848 55.8769 207.979 50.8305 208.138 44.1514C208.276 37.9282 202.625 32.0019 196.328 32.2669V32.2775Z" fill="#7AB94D"/>
<path d="M157.038 56.9901C152.988 60.2554 148.589 61.9729 143.564 61.4852C139.355 61.0823 135.549 59.4815 132.633 56.407C126.336 49.7385 126.251 41.0875 131.054 33.9632C133.958 29.6483 138.326 27.4962 143.405 26.9343C148.472 26.383 152.946 28.0687 157.028 31.546C157.028 25.8741 157.028 20.5733 157.028 15.283C157.028 13.2899 157.144 13.1733 159.148 13.1733C159.646 13.1733 160.145 13.1733 160.643 13.1733C161.873 13.1627 162.424 13.7882 162.424 14.9968C162.413 17.4352 162.424 19.863 162.424 22.3013C162.424 34.7795 162.424 47.2577 162.424 59.7253C162.424 61.5276 162.265 61.6866 160.452 61.517C159.625 61.4322 158.819 61.1459 157.971 61.2202C157.261 61.2838 157.017 60.8491 157.028 60.1918C157.049 59.2164 157.028 58.2411 157.028 56.9901H157.038ZM157.038 43.8758C156.731 37.483 151.907 32.3199 145.143 32.3624C138.517 32.3942 133.301 37.3345 133.238 43.897C133.174 50.7987 138.104 56.1101 144.921 56.0677C152.172 56.0253 156.72 51.191 157.049 43.8758H157.038Z" fill="#254C97"/>
<path d="M109.373 46.0067C105.429 46.0067 101.496 46.0279 97.5524 45.9961C96.4816 45.9961 96.259 46.1552 96.5558 47.3425C97.7538 52.1027 102.578 55.8239 107.56 56.1101C111.716 56.3434 115.077 54.4775 117.59 51.1804C118.788 49.6113 119.88 49.4735 121.841 50.7987C123.049 51.615 123.177 52.707 122.201 54.1594C119.466 58.2623 115.565 60.4462 110.741 61.2626C106.066 62.0577 101.846 60.9339 98.0718 58.3047C93.3541 55.0076 90.7355 50.4276 90.6719 44.5755C90.5871 37.1225 94.2022 31.7262 100.69 28.5881C106.998 25.5243 113.222 26.3724 118.904 30.7191C123.378 34.1328 124.979 38.9036 125.615 44.162C125.71 44.9784 125.191 45.6357 124.12 45.7629C121.099 46.1021 118.077 46.0279 115.056 46.0385C113.158 46.0385 111.26 46.0385 109.373 46.0385V46.0067ZM108.048 40.6317C111.388 40.6317 114.717 40.6105 118.056 40.6423C119.148 40.6529 119.318 40.3242 118.915 39.3383C118.332 37.8964 117.441 36.6242 116.317 35.6595C113.455 33.1787 110.19 31.8429 106.235 32.5426C102.005 33.2953 98.9624 35.4262 97.1813 39.3489C96.736 40.3348 96.9693 40.6529 98.04 40.6423C101.38 40.5999 104.709 40.6317 108.048 40.6317Z" fill="#254C97"/>
<path d="M293.472 43.4623C293.164 36.6878 298.868 29.1606 306.109 27.3901C311.569 26.0649 316.838 26.701 321.428 30.3904C326.125 34.1752 328.288 39.052 327.97 45.0632C327.916 46.0703 327.397 46.1975 326.761 45.9431C325.923 45.6145 325.096 45.7099 324.27 45.7099C316.392 45.6993 308.505 45.6993 300.628 45.7099C299.26 45.7099 298.878 46.1657 299.324 47.4273C300.734 51.4878 303.48 54.3608 307.625 55.4846C311.919 56.6402 315.905 55.7285 319.181 52.5161C319.499 52.2087 319.721 51.8164 319.986 51.4772C320.845 50.4276 321.884 49.8233 323.4 50.1308C325.701 50.5972 326.157 52.6858 324.863 54.3608C321.693 58.4637 317.654 60.7855 312.427 61.2625C308.356 61.6336 304.656 60.8067 301.327 58.5167C296.323 55.0712 293.429 50.4382 293.493 43.4517L293.472 43.4623ZM310.848 40.6317C314.039 40.6317 317.23 40.6317 320.432 40.6317C322.107 40.6317 322.255 40.3666 321.492 38.8188C320.495 36.7832 318.958 35.2884 317.039 34.0692C310.88 30.1466 303.268 32.8076 300.098 38.8718C299.419 40.1652 299.758 40.6317 301.264 40.6317C304.455 40.6317 307.646 40.6317 310.848 40.6317Z" fill="#7AB94D"/>
<path d="M242.032 43.6744C242.032 48.3497 242.223 53.0357 241.979 57.7004C241.756 61.9199 241.375 66.1288 239.413 70.0726C237.251 74.4193 232.639 76.3912 227.72 75.6385C224.921 75.2038 222.451 74.3663 220.235 72.617C219.196 71.8007 219.153 71.1328 219.98 70.2422C220.32 69.8818 220.68 69.5319 221.041 69.1821C222.472 67.772 222.747 67.8675 224.359 69.076C227.9 71.7477 232.151 71.2176 235.151 67.2632C236.689 65.2276 236.667 62.7786 236.922 60.4357C237.049 59.3013 236.212 58.962 235.204 59.5345C227.603 63.8282 217.712 59.4603 216.333 50.7881C215.464 45.3071 215.517 39.7306 215.793 34.2071C215.878 32.479 215.687 30.8039 215.697 29.0971C215.697 27.7931 216.164 27.1357 217.637 27.1676C221.083 27.2312 221.094 27.1782 221.094 30.6343C221.094 36.3592 221.094 42.0735 221.094 47.7984C221.094 52.6752 224.942 56.0678 229.331 55.8345C232.914 55.6437 236.137 52.6222 236.402 49.2085C236.922 42.5082 236.53 35.8185 236.614 29.1183C236.636 27.6552 236.932 27.1145 238.502 27.157C242.032 27.2736 242.043 27.1888 242.043 30.6873V43.6744H242.032Z" fill="#7AB94D"/>
<path d="M79.9853 29.765C81.7027 29.1925 83.134 27.9733 84.9574 27.6552C86.0282 27.475 87.099 27.1464 87.9471 28.2065C88.8483 29.3409 88.7635 30.5601 88.3182 31.8217C88.1062 32.4154 87.7245 32.7334 87.046 32.8925C82.5615 33.9208 79.6778 37.2074 79.8368 42.0099C80.0383 47.8197 79.8898 53.64 79.8792 59.4497C79.8792 61.3686 79.7414 61.517 77.8649 61.517C74.3982 61.5276 74.1861 61.3262 74.1861 57.8489C74.1861 54.3185 74.0377 50.7881 74.2179 47.2684C74.5148 41.6177 74.4724 35.9776 74.483 30.3269C74.483 28.2171 75.1509 27.2948 76.7517 27.1888C79.0735 27.0297 79.5506 27.4114 79.9641 29.7544L79.9853 29.765Z" fill="#254C97"/>
<path d="M167.916 44.2045C167.916 39.1369 167.916 34.0693 167.916 28.9911C167.916 27.5987 168.594 26.899 169.951 26.8919C173.026 26.8919 173.312 27.1676 173.312 30.2421C173.312 39.8896 173.312 49.5266 173.312 59.1741C173.312 61.3262 173.11 61.5383 170.937 61.5171C167.46 61.4853 167.947 61.9835 167.937 58.5168C167.916 53.746 167.937 48.9753 167.937 44.2045H167.916Z" fill="#254C97"/>
<path d="M170.736 22.7254C168.827 22.7042 167.152 21.1245 167.226 19.4177C167.301 17.3927 168.499 16.2796 170.566 16.3326C172.368 16.375 174.001 17.891 174.012 19.5237C174.012 21.4532 172.697 22.7466 170.736 22.7254Z" fill="#254C97"/>
<path d="M35.7974 60.9234C40.2607 60.7007 44.6498 60.2237 48.4134 57.4672C49.0177 57.0325 49.569 56.5555 50.2899 56.248C52.177 55.4529 53.481 56.5025 54.6578 57.6262C55.718 58.6334 56.3117 59.9374 55.8452 61.4853C55.5271 62.556 54.6472 63.1497 53.8203 63.7328C51.3395 65.4927 48.5406 66.6059 45.657 67.5176C42.3811 68.546 39.0521 69.1927 35.6066 69.1503C34.6736 69.1397 33.7301 69.0125 32.8183 68.8216C31.3023 68.5036 31.1963 68.1961 31.7264 65.8956C29.7756 68.546 28.2384 71.2388 25.8742 73.7726C25.4714 71.0904 26.7118 69.1397 27.5917 67.242C28.1748 66.1606 28.6943 65.005 28.9275 63.7434C28.3762 64.8142 27.8355 65.885 27.2842 66.9451C25.1321 67.6766 23.3828 66.4575 21.5699 65.7259C17.0642 63.9024 13.1204 61.199 9.95048 57.5202C5.43416 52.3042 2.33847 46.3672 1.37371 39.4125C0.387755 32.2564 1.3207 25.4077 4.55422 18.9407C7.5545 12.9507 11.9436 8.16935 17.7427 4.7238C21.941 2.25361 26.4573 0.907195 31.2917 0.292297C40.494 -0.873889 48.7103 1.47969 56.1633 6.81234C57.7111 7.91491 57.8171 8.80545 57.0114 10.5547C56.3859 11.9117 55.4105 12.9825 54.3292 13.9685C53.4068 14.8166 51.6257 14.9226 50.6716 14.1381C47.5017 11.5407 43.8123 9.91863 39.8472 9.26133C32.8077 8.09514 26.2665 9.58998 20.425 13.7882C18.4848 15.1771 16.9794 17.0324 15.0923 18.8028C17.9548 19.0891 20.3295 20.2871 22.6831 21.5063C22.7679 21.3579 22.8527 21.273 22.8527 21.1988C22.8103 20.7218 21.9092 20.3613 22.4605 19.8948C22.8421 19.5662 23.5206 19.6828 24.0825 19.9266C30.645 22.7679 36.8046 26.3088 42.5295 30.6025C43.4942 31.334 44.4696 32.055 45.5086 32.6805C46.1341 33.0621 46.7596 33.1151 47.2896 32.2882C48.3074 30.7191 48.477 28.8957 48.9647 27.1782C49.7174 24.5384 50.6928 22.1318 53.8521 21.5699C54.2868 21.4957 54.7108 21.3897 55.1031 21.5169C58.5592 22.5771 62.0684 22.3014 65.5245 21.6971C67.7721 21.3048 70.0091 21.114 72.5323 21.22C71.3343 22.259 70.0091 22.4498 68.7369 22.5877C65.938 22.8951 63.4466 23.9659 61.5701 25.9908C60.0329 27.6553 58.9091 29.6802 57.5521 31.5143C55.3045 34.557 54.4034 37.9495 54.3716 41.7237C54.3398 45.7629 52.0498 48.7314 49.0071 51.1592C45.2965 54.1277 41.0346 56.3116 37.2286 59.1529C36.6137 59.6194 36.1155 60.1706 35.5854 60.7007C35.49 60.828 35.4051 60.9552 35.3097 61.0824C35.543 61.2202 35.7126 61.1566 35.808 60.9022L35.7974 60.9234ZM37.4937 42.381C34.5146 41.8615 32.2882 40.2289 30.2739 38.3736C25.0579 33.5816 20.4568 28.249 16.4811 22.3756C14.4774 19.4177 14.4986 19.4389 12.8447 22.6089C10.2579 27.581 9.37799 32.8183 10.2685 38.3524C11.0531 43.2609 13.131 47.5334 16.4705 51.2122C19.7888 54.8804 23.8493 57.34 28.6307 58.6334C29.6378 58.909 30.539 59.3437 30.751 60.4145C33.6241 54.7108 33.0198 47.7031 37.5043 42.381H37.4937Z" fill="#254B96"/>
</svg>
